<svg width="15" height="15" viewBox="0 0 15 15" fill="none" xmlns="http://www.w3.org/2000/svg">
<path fill-rule="evenodd" clip-rule="evenodd" d="M7.5 1.40625C7.5 1.40625 8.73946 1.40625 9.87211 1.88532C9.87211 1.88532 10.9658 2.3479 11.8089 3.19107C11.8089 3.19107 12.6521 4.03424 13.1147 5.12789C13.1147 5.12789 13.5938 6.26054 13.5938 7.5C13.5938 7.5 13.5937 8.73945 13.1147 9.87211C13.1147 9.87211 12.6521 10.9658 11.8089 11.8089C11.8089 11.8089 10.9658 12.6521 9.87211 13.1147C9.87211 13.1147 8.73945 13.5938 7.5 13.5938C7.5 13.5938 6.26054 13.5938 5.12789 13.1147C5.12789 13.1147 4.03424 12.6521 3.19107 11.8089C3.19107 11.8089 2.3479 10.9658 1.88532 9.87211C1.88532 9.87211 1.40625 8.73946 1.40625 7.5C1.40625 7.5 1.40625 6.26054 1.88532 5.12789C1.88532 5.12789 2.3479 4.03424 3.19107 3.19107C3.19107 3.19107 4.03424 2.3479 5.12789 1.88532C5.12789 1.88532 6.26054 1.40625 7.5 1.40625ZM7.5 2.34375C7.5 2.34375 6.45065 2.34375 5.4931 2.74876C5.4931 2.74876 4.56786 3.14011 3.85398 3.85398C3.85398 3.85398 3.14011 4.56785 2.74876 5.4931C2.74876 5.4931 2.34375 6.45065 2.34375 7.5C2.34375 7.5 2.34375 8.54935 2.74876 9.5069C2.74876 9.5069 3.14011 10.4321 3.85398 11.146C3.85398 11.146 4.56786 11.8599 5.4931 12.2512C5.4931 12.2512 6.45066 12.6562 7.5 12.6562C7.5 12.6562 8.54934 12.6563 9.5069 12.2512C9.5069 12.2512 10.4321 11.8599 11.146 11.146C11.146 11.146 11.8599 10.4321 12.2512 9.5069C12.2512 9.5069 12.6562 8.54934 12.6562 7.5C12.6562 7.5 12.6563 6.45066 12.2512 5.4931C12.2512 5.4931 11.8599 4.56785 11.146 3.85398C11.146 3.85398 10.4321 3.14011 9.5069 2.74876C9.5069 2.74876 8.54935 2.34375 7.5 2.34375Z" fill="#8A8989"/>
<path d="M7.5 7.96875H10.7812C11.0401 7.96875 11.25 7.75888 11.25 7.5C11.25 7.24112 11.0401 7.03125 10.7812 7.03125H7.96875V4.21875C7.96875 3.95987 7.75888 3.75 7.5 3.75C7.24112 3.75 7.03125 3.95987 7.03125 4.21875V7.5C7.03125 7.75888 7.24112 7.96875 7.5 7.96875Z" fill="#8A8989"/>
</svg>
