<svg xmlns="http://www.w3.org/2000/svg" width="20" height="20" viewBox="0 0 20 20" fill="none">
  <path fill-rule="evenodd" clip-rule="evenodd" d="M2.86405 6.4154C2.76062 6.25585 2.6748 6.11521 2.60705 6C2.6748 5.88479 2.76062 5.74415 2.86405 5.5846C3.16578 5.11917 3.61249 4.50046 4.19204 3.88461C5.36482 2.63836 6.99281 1.49434 9 1.49434C11.0072 1.49434 12.6352 2.63836 13.808 3.88461C14.3875 4.50046 14.8342 5.11917 15.136 5.5846C15.2394 5.74415 15.3252 5.88479 15.393 6C15.3252 6.11521 15.2394 6.25585 15.136 6.4154C14.8342 6.88083 14.3875 7.49954 13.808 8.11539C12.6352 9.36164 11.0072 10.5057 9 10.5057C6.99281 10.5057 5.36482 9.36164 4.19204 8.11539C3.61249 7.49954 3.16578 6.88083 2.86405 6.4154ZM16.9206 5.66534C16.9207 5.66561 16.9208 5.66586 16.25 6C16.9208 6.33414 16.9207 6.33439 16.9206 6.33466L16.9202 6.3353L16.9194 6.33694L16.917 6.34165L16.9093 6.35669C16.9029 6.36918 16.8938 6.38655 16.8822 6.40846C16.8589 6.45227 16.8253 6.51432 16.7814 6.59202C16.6937 6.7473 16.5649 6.96566 16.396 7.22611C16.0592 7.74559 15.5585 8.44008 14.9023 9.13743C13.6035 10.5176 11.6064 12 9 12C6.39355 12 4.39654 10.5176 3.09773 9.13743C2.44149 8.44008 1.94075 7.74559 1.60399 7.22611C1.43514 6.96566 1.30629 6.7473 1.21861 6.59202C1.17474 6.51432 1.1411 6.45227 1.11783 6.40846C1.10619 6.38655 1.09714 6.36918 1.09069 6.35669L1.08298 6.34165L1.08059 6.33694L1.07976 6.3353L1.07944 6.33466C1.0793 6.33439 1.07918 6.33414 1.75 6C1.07918 5.66586 1.0793 5.66561 1.07944 5.66534L1.07976 5.6647L1.08059 5.66306L1.08298 5.65835L1.09069 5.64331C1.09714 5.63082 1.10619 5.61345 1.11783 5.59154C1.1411 5.54773 1.17474 5.48568 1.21861 5.40798C1.30629 5.2527 1.43514 5.03434 1.60399 4.77389C1.94075 4.25441 2.44149 3.55992 3.09773 2.86256C4.39654 1.4824 6.39355 0 9 0C11.6064 0 13.6035 1.4824 14.9023 2.86256C15.5585 3.55992 16.0592 4.25441 16.396 4.77389C16.5649 5.03434 16.6937 5.2527 16.7814 5.40798C16.8253 5.48568 16.8589 5.54773 16.8822 5.59154C16.8938 5.61345 16.9029 5.63082 16.9093 5.64331L16.917 5.65835L16.9194 5.66306L16.9202 5.6647L16.9206 5.66534ZM16.25 6L16.9208 5.66586C17.0264 5.8762 17.0264 6.1238 16.9208 6.33414L16.25 6ZM1.07918 5.66586L1.75 6L1.07918 6.33414C0.973607 6.1238 0.973607 5.8762 1.07918 5.66586ZM7.77272 6C7.77272 5.32476 8.32219 4.77736 8.99999 4.77736C9.6778 4.77736 10.2273 5.32476 10.2273 6C10.2273 6.67525 9.6778 7.22264 8.99999 7.22264C8.32219 7.22264 7.77272 6.67525 7.77272 6ZM8.99999 3.28302C7.49376 3.28302 6.27272 4.49945 6.27272 6C6.27272 7.50055 7.49376 8.71698 8.99999 8.71698C10.5062 8.71698 11.7273 7.50055 11.7273 6C11.7273 4.49945 10.5062 3.28302 8.99999 3.28302Z" fill="#3F434A"/>
</svg>