<svg width="43" height="43" viewBox="0 0 43 43" fill="none" xmlns="http://www.w3.org/2000/svg">
<circle cx="21.5" cy="21.5" r="21" fill="#FFFEFE" stroke="#646464"/>
<path d="M22 18H14C13.4696 18 12.9609 18.2107 12.5858 18.5858C12.2107 18.9609 12 19.4696 12 20V24C12 24.5304 12.2107 25.0391 12.5858 25.4142C12.9609 25.7893 13.4696 26 14 26H15V30C15 30.2652 15.1054 30.5196 15.2929 30.7071C15.4804 30.8946 15.7348 31 16 31H18C18.2652 31 18.5196 30.8946 18.7071 30.7071C18.8946 30.5196 19 30.2652 19 30V26H22L27 30V14L22 18ZM25 25.6L23 24H14V20H23L25 18.4V25.6ZM31.5 22C31.5 23.71 30.54 25.26 29 26V18C30.53 18.75 31.5 20.3 31.5 22Z" fill="black"/>
</svg>
