<svg width="43" height="43" viewBox="0 0 43 43" fill="none" xmlns="http://www.w3.org/2000/svg">
<circle cx="21.5" cy="21.5" r="21" fill="#FDFCFC" stroke="black"/>
<path d="M27.756 15.36C29.776 17.56 29.776 20.61 27.756 22.63L26.076 20.94C26.916 19.76 26.916 18.23 26.076 17.05L27.756 15.36ZM31.066 12C35.006 16.05 34.966 22.11 31.066 26L29.436 24.37C32.206 21.19 32.206 16.65 29.436 13.63L31.066 12ZM20.006 15C22.206 15 24.006 16.79 24.006 19C24.006 21.21 22.206 23 20.006 23C17.806 23 16.006 21.21 16.006 19C16.006 16.79 17.796 15 20.006 15ZM24.006 25.54C24.006 26.6 23.716 29.07 21.806 31.83L21.006 27L21.936 25.12C21.316 25.05 20.666 25 20.006 25C19.346 25 18.676 25.05 18.056 25.12L19.006 27L18.186 31.83C16.276 29.07 16.006 26.6 16.006 25.54C13.606 26.24 12 27.5 12 29V33H28.006V29C28.006 27.5 26.396 26.24 24.006 25.54Z" fill="black"/>
</svg>
