<svg width="15" height="15" viewBox="0 0 15 15" fill="none" xmlns="http://www.w3.org/2000/svg">
<g id="arrow-down-drop-circle">
<path id="Vector" d="M7.5 1.25C8.32076 1.25 9.13349 1.41166 9.89177 1.72575C10.6501 2.03984 11.3391 2.50022 11.9194 3.08058C12.4998 3.66095 12.9602 4.34994 13.2742 5.10823C13.5883 5.86651 13.75 6.67924 13.75 7.5C13.75 9.1576 13.0915 10.7473 11.9194 11.9194C10.7473 13.0915 9.1576 13.75 7.5 13.75C6.67924 13.75 5.86651 13.5883 5.10823 13.2742C4.34994 12.9602 3.66095 12.4998 3.08058 11.9194C1.90848 10.7473 1.25 9.1576 1.25 7.5C1.25 5.8424 1.90848 4.25269 3.08058 3.08058C4.25269 1.90848 5.8424 1.25 7.5 1.25ZM4.375 6.25L7.5 9.375L10.625 6.25H4.375Z" fill="#006FFD"/>
</g>
</svg>
