<svg width="15" height="15" viewBox="0 0 15 15" fill="none" xmlns="http://www.w3.org/2000/svg">
<path d="M10.625 2.96875H9.84375V2.1875C9.84375 2.06318 9.79436 1.94395 9.70646 1.85604C9.61855 1.76814 9.49932 1.71875 9.375 1.71875C9.25068 1.71875 9.13145 1.76814 9.04354 1.85604C8.95564 1.94395 8.90625 2.06318 8.90625 2.1875V2.96875H6.09375V2.1875C6.09375 2.06318 6.04436 1.94395 5.95646 1.85604C5.86855 1.76814 5.74932 1.71875 5.625 1.71875C5.50068 1.71875 5.38145 1.76814 5.29354 1.85604C5.20564 1.94395 5.15625 2.06318 5.15625 2.1875V2.96875H4.375C3.91916 2.96875 3.48199 3.14983 3.15966 3.47216C2.83733 3.79449 2.65625 4.23166 2.65625 4.6875V11.5625C2.65625 12.0183 2.83733 12.4555 3.15966 12.7778C3.48199 13.1002 3.91916 13.2812 4.375 13.2812H10.625C11.0808 13.2812 11.518 13.1002 11.8403 12.7778C12.1627 12.4555 12.3438 12.0183 12.3438 11.5625V4.6875C12.3438 4.23166 12.1627 3.79449 11.8403 3.47216C11.518 3.14983 11.0808 2.96875 10.625 2.96875ZM4.375 3.90625H5.15625V4.6875C5.15625 4.81182 5.20564 4.93105 5.29354 5.01896C5.38145 5.10686 5.50068 5.15625 5.625 5.15625C5.74932 5.15625 5.86855 5.10686 5.95646 5.01896C6.04436 4.93105 6.09375 4.81182 6.09375 4.6875V3.90625H8.90625V4.6875C8.90625 4.81182 8.95564 4.93105 9.04354 5.01896C9.13145 5.10686 9.25068 5.15625 9.375 5.15625C9.49932 5.15625 9.61855 5.10686 9.70646 5.01896C9.79436 4.93105 9.84375 4.81182 9.84375 4.6875V3.90625H10.625C10.8322 3.90625 11.0309 3.98856 11.1774 4.13507C11.3239 4.28159 11.4062 4.4803 11.4062 4.6875V6.40625H3.59375V4.6875C3.59375 4.4803 3.67606 4.28159 3.82257 4.13507C3.96909 3.98856 4.1678 3.90625 4.375 3.90625ZM10.625 12.3438H4.375C4.1678 12.3438 3.96909 12.2614 3.82257 12.1149C3.67606 11.9684 3.59375 11.7697 3.59375 11.5625V7.34375H11.4062V11.5625C11.4062 11.7697 11.3239 11.9684 11.1774 12.1149C11.0309 12.2614 10.8322 12.3438 10.625 12.3438Z" fill="black"/>
<path d="M8.75 9.5625H6.25C6.12568 9.5625 6.00645 9.61189 5.91854 9.69979C5.83064 9.7877 5.78125 9.90693 5.78125 10.0312C5.78125 10.1556 5.83064 10.2748 5.91854 10.3627C6.00645 10.4506 6.12568 10.5 6.25 10.5H8.75C8.87432 10.5 8.99355 10.4506 9.08146 10.3627C9.16936 10.2748 9.21875 10.1556 9.21875 10.0312C9.21875 9.90693 9.16936 9.7877 9.08146 9.69979C8.99355 9.61189 8.87432 9.5625 8.75 9.5625Z" fill="black"/>
</svg>
