<svg width="15" height="15" viewBox="0 0 15 15" fill="none" xmlns="http://www.w3.org/2000/svg">
<path d="M11.0356 10.4106L8.38375 13.0625C8.26778 13.1786 8.13006 13.2707 7.97848 13.3335C7.82689 13.3963 7.66441 13.4287 7.50031 13.4287C7.33622 13.4287 7.17374 13.3963 7.02215 13.3335C6.87057 13.2707 6.73285 13.1786 6.61688 13.0625L3.96438 10.4106C3.26514 9.71135 2.78896 8.82044 2.59606 7.85054C2.40315 6.88064 2.50218 5.87532 2.88063 4.96171C3.25907 4.04809 3.89994 3.26721 4.72218 2.71782C5.54442 2.16842 6.51111 1.87518 7.5 1.87518C8.4889 1.87518 9.45559 2.16842 10.2778 2.71782C11.1001 3.26721 11.7409 4.04809 12.1194 4.96171C12.4978 5.87532 12.5969 6.88064 12.4039 7.85054C12.211 8.82044 11.7349 9.71135 11.0356 10.4106V10.4106Z" stroke="#3E3D3D" stroke-opacity="0.65" stroke-width="2" stroke-linecap="round" stroke-linejoin="round"/>
<path d="M8.82583 8.20083C9.17746 7.84919 9.375 7.37228 9.375 6.875C9.375 6.37772 9.17746 5.90081 8.82583 5.54917C8.47419 5.19754 7.99728 5 7.5 5C7.00272 5 6.52581 5.19754 6.17417 5.54917C5.82254 5.90081 5.625 6.37772 5.625 6.875C5.625 7.37228 5.82254 7.84919 6.17417 8.20083C6.52581 8.55246 7.00272 8.75 7.5 8.75C7.99728 8.75 8.47419 8.55246 8.82583 8.20083Z" stroke="#3E3D3D" stroke-opacity="0.65" stroke-width="2" stroke-linecap="round" stroke-linejoin="round"/>
</svg>
