<svg xmlns="http://www.w3.org/2000/svg" width="25" height="25" viewBox="0 0 25 25" fill="none">
  <path fill-rule="evenodd" clip-rule="evenodd" d="M12.5 2.34375C12.5 2.34375 14.5658 2.34375 16.4535 3.1422C16.4535 3.1422 18.2763 3.91316 19.6816 5.31845C19.6816 5.31845 21.0868 6.72373 21.8578 8.54649C21.8578 8.54649 22.6562 10.4342 22.6562 12.5C22.6562 12.5 22.6562 14.5658 21.8578 16.4535C21.8578 16.4535 21.0868 18.2763 19.6816 19.6816C19.6816 19.6816 18.2763 21.0868 16.4535 21.8578C16.4535 21.8578 14.5658 22.6562 12.5 22.6562C12.5 22.6562 10.4342 22.6562 8.54649 21.8578C8.54649 21.8578 6.72373 21.0868 5.31845 19.6816C5.31845 19.6816 3.91316 18.2763 3.1422 16.4535C3.1422 16.4535 2.34375 14.5658 2.34375 12.5C2.34375 12.5 2.34375 10.4342 3.1422 8.54649C3.1422 8.54649 3.91316 6.72373 5.31845 5.31845C5.31845 5.31845 6.72373 3.91316 8.54649 3.1422C8.54649 3.1422 10.4342 2.34375 12.5 2.34375ZM12.5 3.90625C12.5 3.90625 10.7511 3.90625 9.15516 4.58127C9.15516 4.58127 7.61309 5.23351 6.4233 6.4233C6.4233 6.4233 5.23351 7.61309 4.58127 9.15516C4.58127 9.15516 3.90625 10.7511 3.90625 12.5C3.90625 12.5 3.90625 14.2489 4.58127 15.8448C4.58127 15.8448 5.23351 17.3869 6.4233 18.5767C6.4233 18.5767 7.61309 19.7665 9.15516 20.4187C9.15516 20.4187 10.7511 21.0938 12.5 21.0938C12.5 21.0938 14.2489 21.0938 15.8448 20.4187C15.8448 20.4187 17.3869 19.7665 18.5767 18.5767C18.5767 18.5767 19.7665 17.3869 20.4187 15.8448C20.4187 15.8448 21.0938 14.2489 21.0938 12.5C21.0938 12.5 21.0938 10.7511 20.4187 9.15516C20.4187 9.15516 19.7665 7.61309 18.5767 6.4233C18.5767 6.4233 17.3869 5.23351 15.8448 4.58127C15.8448 4.58127 14.2489 3.90625 12.5 3.90625Z" fill="#767676" fill-opacity="0.6"/>
  <path d="M12.5 13.2812H17.9688C18.4002 13.2812 18.75 12.9315 18.75 12.5C18.75 12.0685 18.4002 11.7188 17.9688 11.7188H13.2812V7.03125C13.2812 6.59978 12.9315 6.25 12.5 6.25C12.0685 6.25 11.7188 6.59978 11.7188 7.03125V12.5C11.7188 12.9315 12.0685 13.2812 12.5 13.2812Z" fill="#767676" fill-opacity="0.6"/>
</svg>