<svg width="25" height="25" viewBox="0 0 25 25" fill="none" xmlns="http://www.w3.org/2000/svg">
<g id="cutlery 2">
<g id="cutlery 2_2">
<g id="Group">
<path id="Vector" d="M7.59766 21.5609C7.08289 21.5609 6.5892 21.3878 6.22521 21.0798C5.86122 20.7717 5.65674 20.3538 5.65674 19.9182L6.50061 10.9903H8.77908L9.62295 19.9182C9.6232 20.14 9.57035 20.3597 9.46757 20.5638C9.3648 20.7679 9.21423 20.9522 9.02497 21.1058C8.8357 21.2593 8.61166 21.3787 8.36635 21.457C8.12104 21.5352 7.85955 21.5705 7.59766 21.5609Z" stroke="#A6A6A6" stroke-width="1.5" stroke-linecap="round" stroke-linejoin="round"/>
<path id="Vector_2" d="M7.59755 10.9903C10.0677 10.9903 12.0701 8.87985 12.0701 6.27642C12.0701 3.673 10.0677 1.5625 7.59755 1.5625C5.12743 1.5625 3.125 3.673 3.125 6.27642C3.125 8.87985 5.12743 10.9903 7.59755 10.9903Z" stroke="#A6A6A6" stroke-width="1.5" stroke-linecap="round" stroke-linejoin="round"/>
</g>
<g id="Group_2">
<path id="Vector_3" d="M19.3271 21.561C18.8124 21.561 18.3187 21.3879 17.9547 21.0798C17.5907 20.7717 17.3862 20.3539 17.3862 19.9182L18.2301 10.9904H20.5086L21.3524 19.9182C21.3527 20.1401 21.2998 20.3597 21.1971 20.5638C21.0943 20.7679 20.9437 20.9523 20.7544 21.1058C20.5652 21.2593 20.3411 21.3788 20.0958 21.457C19.8505 21.5353 19.589 21.5706 19.3271 21.561Z" stroke="#A6A6A6" stroke-width="1.5" stroke-linecap="round" stroke-linejoin="round"/>
<path id="Vector_4" d="M23.1246 7.77631C23.1025 8.63523 22.6838 9.45266 21.9582 10.0534C21.2326 10.6542 20.2578 10.9905 19.2428 10.9903C18.2356 10.9903 17.2697 10.6517 16.5576 10.049C15.8454 9.44622 15.4453 8.62872 15.4453 7.77631H23.1246Z" stroke="#A6A6A6" stroke-width="1.5" stroke-linecap="round" stroke-linejoin="round"/>
<path id="Vector_5" d="M15.4453 1.84821V7.77633" stroke="#A6A6A6" stroke-width="1.5" stroke-linecap="round" stroke-linejoin="round"/>
<path id="Vector_6" d="M19.2432 1.84821V7.63347" stroke="#A6A6A6" stroke-width="1.5" stroke-linecap="round" stroke-linejoin="round"/>
<path id="Vector_7" d="M23.125 1.84821V7.77633" stroke="#A6A6A6" stroke-width="1.5" stroke-linecap="round" stroke-linejoin="round"/>
</g>
</g>
</g>
</svg>
