<svg width="28" height="22" viewBox="0 0 28 22" fill="none" xmlns="http://www.w3.org/2000/svg">
<g id="Icons/Basic/Like">
<path id="Like" fill-rule="evenodd" clip-rule="evenodd" d="M13.836 0.491937C14.6277 0.167191 15.4764 0 16.3336 0C17.1908 0 18.0395 0.167191 18.8312 0.491937C19.6227 0.816617 20.3417 1.29238 20.9471 1.89189C21.5529 2.49128 22.0332 3.20276 22.3609 3.9856C22.6885 4.76844 22.8571 5.60739 22.8571 6.45457C22.8571 7.30175 22.6885 8.14071 22.3609 8.92354C22.0332 9.70638 21.5529 10.4179 20.9471 11.0173L12.1871 19.6891C11.9861 19.8881 11.7131 20 11.4283 20C11.1436 20 10.8705 19.8881 10.6695 19.6891L1.90934 11.0171C0.686415 9.80645 0 8.1652 0 6.45457C0 4.74394 0.686416 3.10269 1.90934 1.89207C3.13238 0.681327 4.7919 0.000524647 6.52302 0.000524647C8.25414 0.000524563 9.91367 0.681327 11.1367 1.89207L11.4283 2.18074L11.7197 1.89224C11.7197 1.8923 11.7198 1.89219 11.7197 1.89224C12.3252 1.29265 13.0444 0.816649 13.836 0.491937ZM19.4294 3.3847C19.0226 2.9818 18.5398 2.66238 18.0087 2.4445C17.4775 2.22663 16.9083 2.11454 16.3336 2.11454C15.7589 2.11454 15.1897 2.22663 14.6585 2.4445C14.1273 2.66238 13.6445 2.9818 13.2377 3.3847L12.1871 4.42474C11.9861 4.62375 11.7131 4.7356 11.4283 4.7356C11.1436 4.7356 10.8705 4.62375 10.6695 4.42474L9.61906 3.38488C8.79735 2.57143 7.68361 2.11506 6.52302 2.11506C5.36244 2.11506 4.24869 2.57143 3.42699 3.38488C2.60517 4.19844 2.14286 5.30257 2.14286 6.45457C2.14286 7.60657 2.60517 8.71071 3.42699 9.52427L11.4283 17.4451L19.4296 9.52427C19.8366 9.12155 20.1598 8.64304 20.3803 8.11632C20.6008 7.5896 20.7143 7.02492 20.7143 6.45457C20.7143 5.88423 20.6008 5.31955 20.3803 4.79282C20.1598 4.26611 19.8364 3.78742 19.4294 3.3847Z" fill="#3F434A"/>
</g>
</svg>
