<svg width="13" height="13" viewBox="0 0 13 13" fill="none" xmlns="http://www.w3.org/2000/svg">
<g id="Info-f">
<rect width="13" height="13" fill="white"/>
<path id="Vector" d="M6.5 1.21875C5.45547 1.21875 4.43439 1.52849 3.5659 2.1088C2.6974 2.68911 2.02049 3.51393 1.62076 4.47895C1.22104 5.44397 1.11645 6.50586 1.32023 7.53032C1.52401 8.55478 2.027 9.49581 2.76559 10.2344C3.50419 10.973 4.44522 11.476 5.46968 11.6798C6.49414 11.8835 7.55603 11.779 8.52105 11.3792C9.48607 10.9795 10.3109 10.3026 10.8912 9.4341C11.4715 8.56561 11.7813 7.54453 11.7813 6.5C11.7786 5.10015 11.2213 3.7584 10.2314 2.76856C9.2416 1.77871 7.89985 1.22143 6.5 1.21875ZM6.39844 3.65625C6.51896 3.65625 6.63678 3.69199 6.73699 3.75895C6.8372 3.82591 6.91531 3.92108 6.96143 4.03243C7.00755 4.14378 7.01962 4.2663 6.99611 4.38451C6.97259 4.50272 6.91456 4.6113 6.82933 4.69652C6.74411 4.78174 6.63553 4.83978 6.51732 4.86329C6.39912 4.8868 6.27659 4.87474 6.16524 4.82861C6.05389 4.78249 5.95872 4.70439 5.89176 4.60418C5.8248 4.50396 5.78906 4.38615 5.78906 4.26562C5.78906 4.10401 5.85327 3.94901 5.96755 3.83473C6.08183 3.72045 6.23682 3.65625 6.39844 3.65625ZM6.90625 9.34375H6.5C6.39226 9.34375 6.28893 9.30095 6.21274 9.22476C6.13655 9.14858 6.09375 9.04524 6.09375 8.9375V6.5C5.98601 6.5 5.88268 6.4572 5.80649 6.38101C5.7303 6.30483 5.6875 6.20149 5.6875 6.09375C5.6875 5.98601 5.7303 5.88267 5.80649 5.80649C5.88268 5.7303 5.98601 5.6875 6.09375 5.6875H6.5C6.60775 5.6875 6.71108 5.7303 6.78726 5.80649C6.86345 5.88267 6.90625 5.98601 6.90625 6.09375V8.53125C7.014 8.53125 7.11733 8.57405 7.19351 8.65024C7.2697 8.72642 7.3125 8.82976 7.3125 8.9375C7.3125 9.04524 7.2697 9.14858 7.19351 9.22476C7.11733 9.30095 7.014 9.34375 6.90625 9.34375Z" fill="#D9D9D9"/>
</g>
</svg>
