<svg width="26" height="26" viewBox="0 0 26 26" fill="none" xmlns="http://www.w3.org/2000/svg">
<g id="shirt (3)">
<path id="Vector" d="M16.6593 23.5454C15.9104 23.4921 15.1122 23.3408 14.43 23.0196L13.5534 22.5959C13.0399 22.3344 13.1015 22.2563 12.5724 22.5285L12.128 22.7494C10.0706 23.7404 7.96933 23.9035 5.90292 22.7307C4.98898 22.212 5.15318 22.0251 5.2455 21.0946L5.29662 20.4859C5.30474 20.3407 5.33145 20.1977 5.33744 20.0522L5.3381 16.1813L5.29923 15.7135C5.25216 14.815 5.25018 14.217 4.72558 13.483C4.32992 12.9295 3.88073 12.4848 3.36396 12.0415L2.57027 11.4057C2.16728 11.1138 1.39598 10.7602 1.28155 10.2271L1.27753 10.2076C1.16154 9.69511 1.5155 9.34487 1.78544 8.95619L4.212 5.77058C4.33147 5.62565 4.44433 5.46658 4.57476 5.33173C5.24835 4.63544 6.09406 4.34868 6.98235 4.02363L7.85198 3.68929C8.08997 3.59938 8.34476 3.51645 8.57086 3.40039C8.67943 3.34469 8.71562 3.21949 8.80349 3.1389C8.87055 3.0774 8.94992 3.02758 9.02393 2.97469L9.36772 2.72719C9.48355 2.64517 9.6002 2.53698 9.72967 2.47826L9.74597 2.4712C9.80505 2.44469 9.85309 2.43633 9.91687 2.42947C10.1779 2.40493 10.312 2.6224 10.4804 2.78155C12.3314 4.53066 13.6124 4.63382 15.4002 2.86153C15.9255 2.34082 15.9358 2.28349 16.5081 2.68265C16.7329 2.83944 16.9671 2.98642 17.1706 3.17099C17.4075 3.38574 17.4816 3.52318 17.7911 3.64803L19.5165 4.23412C20.6119 4.61325 20.9733 4.76506 21.7562 5.75032L23.8479 8.46143C24.1177 8.82594 24.6928 9.41401 24.7324 9.88315L24.7344 9.9087C24.7903 10.5378 24.3881 10.777 23.9306 11.0973C23.1045 11.6757 22.1374 12.1872 21.574 13.0571C20.9553 14.0126 20.8202 15.1348 20.7552 16.2509C20.7479 16.3757 20.7189 16.4978 20.7137 16.6234L20.7087 19.6864C20.7146 20.003 20.7415 20.4212 20.7777 20.7314L20.9045 21.5465C21.0392 22.4039 20.7152 22.5251 20.0844 22.8278C18.9396 23.377 17.9581 23.6117 16.6593 23.5454ZM9.88554 3.35403C9.74107 3.43835 9.60345 3.53276 9.47619 3.6415C9.732 5.07531 10.9017 6.46233 12.3525 6.75417C12.587 6.80134 12.8182 6.81983 13.0509 6.88003L13.071 6.8687C13.2709 6.75881 13.5264 6.78463 13.7465 6.7318C14.6726 6.50942 15.4132 5.92153 15.9302 5.12282C16.132 4.79289 16.5104 4.05771 16.4802 3.65714C16.3474 3.54964 16.1935 3.45691 16.045 3.37251C13.8313 5.57772 12.2362 5.4499 9.88554 3.35403ZM8.78013 4.22145L7.27665 4.77961C6.60761 5.03095 5.77848 5.23944 5.28374 5.79397L5.44965 6.10383C5.54306 6.30874 5.66062 6.51742 5.73171 6.7305L6.07133 7.6045L6.36757 8.60852C6.49401 9.05077 6.58687 9.67716 6.63361 10.1273L6.66131 10.5435C6.73817 11.3965 6.73083 12.0054 6.30193 12.7569L5.76022 13.5662L5.95888 14.3391C6.08301 14.8376 6.13755 15.8466 6.13908 16.3672L6.13562 20.0863L6.01865 21.4364C5.95893 21.9282 5.89733 21.7885 6.36193 22.0524C6.80954 22.3065 7.2666 22.4834 7.76641 22.6024C9.20103 22.8316 10.1855 22.7558 11.5549 22.1131L12.0081 21.8997C12.0691 21.8689 12.1535 21.8466 12.1943 21.7886L12.1928 7.5592C10.6177 7.17105 9.49955 6.12483 8.91115 4.60198L8.78013 4.22145ZM17.189 4.28467C16.6839 5.87451 15.5158 7.23872 13.8097 7.55575L13.8016 21.1339C13.8015 21.9069 13.6499 21.7326 14.3129 22.0592C15.4348 22.6118 16.9821 22.9324 18.2142 22.6294L18.593 22.539L19.2523 22.3087C19.3858 22.2598 20.0265 21.9815 20.1254 21.8776L19.922 20.0205C19.9086 19.8215 19.9155 19.6193 19.9152 19.4198L19.9176 16.6409L19.9783 15.7001C20.0506 14.9283 20.1619 14.1525 20.4584 13.4317C20.5488 13.212 20.5088 13.2943 20.3137 13.1008L19.8051 12.5913C19.6385 12.428 19.4414 12.2655 19.3086 12.0732L19.2946 12.0538C19.1547 11.8559 19.3037 10.5854 19.374 10.1955L19.5268 9.19776C19.6782 8.38033 20.2034 6.51082 20.7362 5.82144C20.2233 5.32107 19.9753 5.24782 19.3071 5.02207L17.9818 4.57948C17.7164 4.4909 17.4519 4.41686 17.2069 4.27873L17.189 4.28467ZM4.71735 6.45181C4.47386 6.70651 4.26649 6.99525 4.04757 7.27053L2.25164 9.69955C2.1843 9.7937 2.09314 9.91273 2.05993 10.0239C2.18852 10.1593 2.36396 10.2745 2.51703 10.3809L3.27771 10.9143C3.6493 11.1845 3.9908 11.5006 4.32804 11.8113C4.66794 12.1327 5.01882 12.4727 5.28892 12.8552C5.86272 11.8965 5.96231 11.7149 5.86361 10.5623C5.75926 9.34335 5.47369 8.21915 5.00307 7.09084L4.71735 6.45181ZM21.2933 6.4673C20.7235 7.4177 20.3036 9.27355 20.1639 10.334L20.0446 11.675L20.9255 12.5343C21.1755 12.2009 21.4844 11.8755 21.8033 11.6072L22.4646 11.1088C22.6677 10.966 23.8813 10.1974 23.9421 10.0547C23.9448 9.9611 23.8546 9.83882 23.8028 9.76186L21.2933 6.4673ZM12.9873 7.58545L12.9815 20.9693C12.9818 21.1708 12.968 21.3903 13.0073 21.5883L13.0124 8.14306C13.0123 7.96223 13.0217 7.77111 12.9962 7.5918L12.9873 7.58545Z" fill="black" stroke="black" stroke-width="0.5"/>
</g>
</svg>
