<svg width="25" height="27" viewBox="0 0 25 27" fill="none" xmlns="http://www.w3.org/2000/svg">
<g id="check-circle">
<path id="Vector" fill-rule="evenodd" clip-rule="evenodd" d="M12.5 24.3C15.1522 24.3 17.6957 23.1621 19.5711 21.1367C21.4464 19.1113 22.5 16.3643 22.5 13.5C22.5 10.6356 21.4464 7.88859 19.5711 5.8632C17.6957 3.83781 15.1522 2.69995 12.5 2.69995C9.84784 2.69995 7.3043 3.83781 5.42893 5.8632C3.55357 7.88859 2.5 10.6356 2.5 13.5C2.5 16.3643 3.55357 19.1113 5.42893 21.1367C7.3043 23.1621 9.84784 24.3 12.5 24.3ZM17.1337 11.7544C17.3614 11.4998 17.4874 11.1588 17.4846 10.8048C17.4817 10.4508 17.3503 10.1122 17.1185 9.86195C16.8868 9.61165 16.5732 9.46967 16.2455 9.46659C15.9178 9.46352 15.602 9.59959 15.3663 9.8455L11.25 14.2911L9.63375 12.5455C9.398 12.2996 9.08224 12.1635 8.7545 12.1666C8.42675 12.1697 8.11324 12.3116 7.88148 12.5619C7.64972 12.8122 7.51826 13.1508 7.51541 13.5048C7.51256 13.8588 7.63855 14.1998 7.86625 14.4544L10.3663 17.1544C10.6007 17.4075 10.9185 17.5497 11.25 17.5497C11.5815 17.5497 11.8993 17.4075 12.1337 17.1544L17.1337 11.7544Z" fill="#25D038"/>
</g>
</svg>
