<svg width="24" height="25" viewBox="0 0 24 25" fill="none" xmlns="http://www.w3.org/2000/svg">
<g id="PrimeNG Icons v5.0.0/check-circle">
<g id="check-circle">
<path id="Vector" d="M10.5 15.75C10.307 15.7352 10.1276 15.6455 9.99998 15.5L6.99998 12.5C6.93314 12.36 6.91133 12.2028 6.93756 12.0499C6.96379 11.8971 7.03676 11.7561 7.14643 11.6464C7.2561 11.5368 7.39707 11.4638 7.54993 11.4376C7.70279 11.4113 7.86003 11.4331 7.99998 11.5L10.47 13.97L19 5.49998C19.1399 5.43314 19.2972 5.41133 19.45 5.43756C19.6029 5.46379 19.7439 5.53676 19.8535 5.64643C19.9632 5.7561 20.0362 5.89707 20.0624 6.04993C20.0886 6.20279 20.0668 6.36003 20 6.49998L11 15.5C10.8724 15.6455 10.6929 15.7352 10.5 15.75Z" fill="#A3A3A3"/>
<path id="Vector_2" d="M12.0001 21.5C10.3916 21.4974 8.81313 21.0638 7.42903 20.2442C6.04494 19.4246 4.90578 18.2491 4.13011 16.84C3.54049 15.7899 3.17608 14.6286 3.06011 13.43C2.87709 11.672 3.21572 9.89915 4.03375 8.33243C4.85179 6.76571 6.11302 5.47454 7.66011 4.61996C8.71013 4.03035 9.87147 3.66594 11.0701 3.54996C12.2643 3.42151 13.4721 3.53719 14.6201 3.88996C14.7226 3.91044 14.8196 3.95209 14.905 4.01225C14.9905 4.07242 15.0624 4.14977 15.1162 4.23935C15.1699 4.32892 15.2044 4.42875 15.2174 4.53242C15.2303 4.6361 15.2215 4.74134 15.1914 4.8414C15.1613 4.94146 15.1106 5.03412 15.0427 5.11346C14.9747 5.1928 14.8909 5.25705 14.7966 5.30211C14.7023 5.34717 14.5997 5.37203 14.4952 5.3751C14.3908 5.37818 14.2869 5.3594 14.1901 5.31996C13.2187 5.02788 12.1988 4.93269 11.1901 5.03996C10.1931 5.14205 9.22706 5.44479 8.35011 5.92996C7.50524 6.39607 6.75825 7.02082 6.15011 7.76996C5.52397 8.53312 5.0564 9.41355 4.7748 10.3597C4.49319 11.3058 4.4032 12.2986 4.51011 13.28C4.6122 14.277 4.91494 15.243 5.40011 16.12C5.86621 16.9648 6.49096 17.7118 7.24011 18.32C8.00327 18.9461 8.8837 19.4137 9.82982 19.6953C10.776 19.9769 11.7688 20.0669 12.7501 19.96C13.7471 19.8579 14.7132 19.5551 15.5901 19.07C16.435 18.6039 17.182 17.9791 17.7901 17.23C18.4162 16.4668 18.8838 15.5864 19.1654 14.6402C19.447 13.6941 19.537 12.7013 19.4301 11.72C19.4203 11.6169 19.4308 11.5129 19.4612 11.4138C19.4915 11.3148 19.5411 11.2228 19.607 11.1429C19.6729 11.0631 19.7539 10.997 19.8454 10.9484C19.9369 10.8999 20.037 10.8698 20.1401 10.86C20.2432 10.8501 20.3472 10.8607 20.4462 10.891C20.5452 10.9214 20.6373 10.9709 20.7172 11.0369C20.797 11.1028 20.8631 11.1838 20.9117 11.2753C20.9602 11.3667 20.9903 11.4669 21.0001 11.57C21.1822 13.3289 20.8421 15.1026 20.0222 16.6694C19.2023 18.2362 17.9391 19.5268 16.3901 20.38C15.3289 20.9937 14.1497 21.3754 12.9301 21.5C12.6201 21.5 12.3001 21.5 12.0001 21.5Z" fill="#A3A3A3"/>
</g>
</g>
</svg>
