<svg width="24" height="24" viewBox="0 0 24 24" fill="none" xmlns="http://www.w3.org/2000/svg">
<g id="PrimeNG Icons v5.0.0/check-circle">
<g id="check-circle">
<path id="Vector" d="M10.5 15.25C10.307 15.2352 10.1276 15.1455 9.99998 15L6.99998 12C6.93314 11.86 6.91133 11.7028 6.93756 11.5499C6.96379 11.3971 7.03676 11.2561 7.14643 11.1464C7.2561 11.0368 7.39707 10.9638 7.54993 10.9376C7.70279 10.9113 7.86003 10.9331 7.99998 11L10.47 13.47L19 4.99998C19.1399 4.93314 19.2972 4.91133 19.45 4.93756C19.6029 4.96379 19.7439 5.03676 19.8535 5.14643C19.9632 5.2561 20.0362 5.39707 20.0624 5.54993C20.0886 5.70279 20.0668 5.86003 20 5.99998L11 15C10.8724 15.1455 10.6929 15.2352 10.5 15.25Z" fill="black"/>
<path id="Vector_2" d="M12.0001 21C10.3916 20.9974 8.81313 20.5638 7.42903 19.7442C6.04494 18.9246 4.90578 17.7491 4.13011 16.34C3.54049 15.2899 3.17608 14.1286 3.06011 12.93C2.87709 11.172 3.21572 9.39915 4.03375 7.83243C4.85179 6.26571 6.11302 4.97454 7.66011 4.11996C8.71013 3.53035 9.87147 3.16594 11.0701 3.04996C12.2643 2.92151 13.4721 3.03719 14.6201 3.38996C14.7226 3.41044 14.8196 3.45209 14.905 3.51225C14.9905 3.57242 15.0624 3.64977 15.1162 3.73935C15.1699 3.82892 15.2044 3.92875 15.2174 4.03242C15.2303 4.1361 15.2215 4.24134 15.1914 4.3414C15.1613 4.44146 15.1106 4.53412 15.0427 4.61346C14.9747 4.6928 14.8909 4.75705 14.7966 4.80211C14.7023 4.84717 14.5997 4.87203 14.4952 4.8751C14.3908 4.87818 14.2869 4.8594 14.1901 4.81996C13.2187 4.52788 12.1988 4.43269 11.1901 4.53996C10.1931 4.64205 9.22706 4.94479 8.35011 5.42996C7.50524 5.89607 6.75825 6.52082 6.15011 7.26996C5.52397 8.03312 5.0564 8.91355 4.7748 9.85968C4.49319 10.8058 4.4032 11.7986 4.51011 12.78C4.6122 13.777 4.91494 14.743 5.40011 15.62C5.86621 16.4648 6.49096 17.2118 7.24011 17.82C8.00327 18.4461 8.8837 18.9137 9.82982 19.1953C10.776 19.4769 11.7688 19.5669 12.7501 19.46C13.7471 19.3579 14.7132 19.0551 15.5901 18.57C16.435 18.1039 17.182 17.4791 17.7901 16.73C18.4162 15.9668 18.8838 15.0864 19.1654 14.1402C19.447 13.1941 19.537 12.2013 19.4301 11.22C19.4203 11.1169 19.4308 11.0129 19.4612 10.9138C19.4915 10.8148 19.5411 10.7228 19.607 10.6429C19.6729 10.5631 19.7539 10.497 19.8454 10.4484C19.9369 10.3999 20.037 10.3698 20.1401 10.36C20.2432 10.3501 20.3472 10.3607 20.4462 10.391C20.5452 10.4214 20.6373 10.4709 20.7172 10.5369C20.797 10.6028 20.8631 10.6838 20.9117 10.7753C20.9602 10.8667 20.9903 10.9669 21.0001 11.07C21.1822 12.8289 20.8421 14.6026 20.0222 16.1694C19.2023 17.7362 17.9391 19.0268 16.3901 19.88C15.3289 20.4937 14.1497 20.8754 12.9301 21C12.6201 21 12.3001 21 12.0001 21Z" fill="black"/>
</g>
</g>
</svg>
