<svg width="25" height="25" viewBox="0 0 25 25" fill="none" xmlns="http://www.w3.org/2000/svg">
<path d="M12.5 2.34375C10.4913 2.34375 8.52768 2.9394 6.85749 4.05539C5.18731 5.17137 3.88556 6.75756 3.11685 8.61337C2.34815 10.4692 2.14702 12.5113 2.5389 14.4814C2.93079 16.4515 3.89807 18.2612 5.31845 19.6816C6.73883 21.1019 8.5485 22.0692 10.5186 22.4611C12.4887 22.853 14.5308 22.6519 16.3866 21.8832C18.2424 21.1144 19.8286 19.8127 20.9446 18.1425C22.0606 16.4723 22.6563 14.5087 22.6563 12.5C22.6511 9.80798 21.5794 7.2277 19.6759 5.32415C17.7723 3.4206 15.192 2.34891 12.5 2.34375ZM16.1816 15.0684C16.3283 15.2165 16.4106 15.4165 16.4106 15.625C16.4106 15.8335 16.3283 16.0335 16.1816 16.1816C16.0323 16.326 15.8327 16.4067 15.625 16.4067C15.4173 16.4067 15.2177 16.326 15.0684 16.1816L12.5 13.6035L9.93164 16.1816C9.78232 16.326 9.58272 16.4067 9.375 16.4067C9.16728 16.4067 8.96769 16.326 8.81836 16.1816C8.67166 16.0335 8.58936 15.8335 8.58936 15.625C8.58936 15.4165 8.67166 15.2165 8.81836 15.0684L11.3965 12.5L8.81836 9.93164C8.69378 9.77985 8.63012 9.58714 8.63975 9.39101C8.64938 9.19487 8.73163 9.00933 8.87048 8.87048C9.00934 8.73162 9.19488 8.64938 9.39101 8.63975C9.58715 8.63011 9.77985 8.69378 9.93164 8.81836L12.5 11.3965L15.0684 8.81836C15.2202 8.69378 15.4129 8.63011 15.609 8.63975C15.8051 8.64938 15.9907 8.73162 16.1295 8.87048C16.2684 9.00933 16.3506 9.19487 16.3603 9.39101C16.3699 9.58714 16.3062 9.77985 16.1816 9.93164L13.6035 12.5L16.1816 15.0684Z" fill="#FF0000"/>
</svg>
