<svg width="43" height="43" viewBox="0 0 43 43" fill="none" xmlns="http://www.w3.org/2000/svg">
<g id="Group 385">
<path id="Ellipse 618" d="M42.5 21.5C42.5 33.098 33.098 42.5 21.5 42.5C9.90202 42.5 0.5 33.098 0.5 21.5C0.5 9.90202 9.90202 0.5 21.5 0.5C33.098 0.5 42.5 9.90202 42.5 21.5Z" fill="#FDFCFC" stroke="black"/>
<path id="Vector" d="M27.756 12.36C29.776 14.56 29.776 17.61 27.756 19.63L26.076 17.94C26.916 16.76 26.916 15.23 26.076 14.05L27.756 12.36ZM31.066 9C35.006 13.05 34.966 19.11 31.066 23L29.436 21.37C32.206 18.19 32.206 13.65 29.436 10.63L31.066 9ZM20.006 12C22.206 12 24.006 13.79 24.006 16C24.006 18.21 22.206 20 20.006 20C17.806 20 16.006 18.21 16.006 16C16.006 13.79 17.796 12 20.006 12ZM24.006 22.54C24.006 23.6 23.716 26.07 21.806 28.83L21.006 24L21.936 22.12C21.316 22.05 20.666 22 20.006 22C19.346 22 18.676 22.05 18.056 22.12L19.006 24L18.186 28.83C16.276 26.07 16.006 23.6 16.006 22.54C13.606 23.24 12 24.5 12 26V30H28.006V26C28.006 24.5 26.396 23.24 24.006 22.54Z" fill="black"/>
</g>
</svg>
