<svg width="43" height="43" viewBox="0 0 43 43" fill="none" xmlns="http://www.w3.org/2000/svg">
<path d="M42.5 21.5C42.5 33.098 33.098 42.5 21.5 42.5C9.90202 42.5 0.5 33.098 0.5 21.5C0.5 9.90202 9.90202 0.5 21.5 0.5C33.098 0.5 42.5 9.90202 42.5 21.5Z" fill="#FDFCFC" stroke="black"/>
<path d="M25.5 18.25H18.5C18.22 18.25 18 18.03 18 17.75V16.25C18 15.97 18.22 15.75 18.5 15.75H25.5C25.78 15.75 26 15.97 26 16.25V17.75C26 18.03 25.78 18.25 25.5 18.25ZM26 21.25V20.25C26 19.97 25.78 19.75 25.5 19.75H24.5C24.22 19.75 24 19.97 24 20.25V21.25C24 21.53 24.22 21.75 24.5 21.75H25.5C25.78 21.75 26 21.53 26 21.25ZM20 21.25V20.25C20 19.97 19.78 19.75 19.5 19.75H18.5C18.22 19.75 18 19.97 18 20.25V21.25C18 21.53 18.22 21.75 18.5 21.75H19.5C19.78 21.75 20 21.53 20 21.25ZM23 21.25V20.25C23 19.97 22.78 19.75 22.5 19.75H21.5C21.22 19.75 21 19.97 21 20.25V21.25C21 21.53 21.22 21.75 21.5 21.75H22.5C22.78 21.75 23 21.53 23 21.25ZM26 24.5V23.5C26 23.22 25.78 23 25.5 23H24.5C24.22 23 24 23.22 24 23.5V24.5C24 24.78 24.22 25 24.5 25H25.5C25.78 25 26 24.78 26 24.5ZM20 24.5V23.5C20 23.22 19.78 23 19.5 23H18.5C18.22 23 18 23.22 18 23.5V24.5C18 24.78 18.22 25 18.5 25H19.5C19.78 25 20 24.78 20 24.5ZM23 24.5V23.5C23 23.22 22.78 23 22.5 23H21.5C21.22 23 21 23.22 21 23.5V24.5C21 24.78 21.22 25 21.5 25H22.5C22.78 25 23 24.78 23 24.5ZM26 27.75V26.75C26 26.47 25.78 26.25 25.5 26.25H24.5C24.22 26.25 24 26.47 24 26.75V27.75C24 28.03 24.22 28.25 24.5 28.25H25.5C25.78 28.25 26 28.03 26 27.75ZM23 27.75V26.75C23 26.47 22.78 26.25 22.5 26.25H18.5C18.22 26.25 18 26.47 18 26.75V27.75C18 28.03 18.22 28.25 18.5 28.25H22.5C22.78 28.25 23 28.03 23 27.75ZM29.25 29.5V14.5C29.25 13.26 28.24 12.25 27 12.25H17C15.76 12.25 14.75 13.26 14.75 14.5V29.5C14.75 30.74 15.76 31.75 17 31.75H27C28.24 31.75 29.25 30.74 29.25 29.5ZM27 13.75C27.41 13.75 27.75 14.09 27.75 14.5V29.5C27.75 29.91 27.41 30.25 27 30.25H17C16.59 30.25 16.25 29.91 16.25 29.5V14.5C16.25 14.09 16.59 13.75 17 13.75H27Z" fill="black"/>
</svg>
