<svg xmlns="http://www.w3.org/2000/svg" width="11" height="10" viewBox="0 0 11 10" fill="none">
  <path d="M8.28865 1.08108H7.50495V0.405405C7.50495 0.297885 7.45541 0.194769 7.36723 0.11874C7.27905 0.0427122 7.15944 0 7.03473 0C6.91002 0 6.79042 0.0427122 6.70224 0.11874C6.61406 0.194769 6.56451 0.297885 6.56451 0.405405V1.08108H3.7432V0.405405C3.7432 0.297885 3.69366 0.194769 3.60547 0.11874C3.51729 0.0427122 3.39769 0 3.27298 0C3.14827 0 3.02867 0.0427122 2.94048 0.11874C2.8523 0.194769 2.80276 0.297885 2.80276 0.405405V1.08108H2.01906C1.56179 1.08108 1.12325 1.23769 0.79991 1.51646C0.476572 1.79523 0.294922 2.17333 0.294922 2.56757V8.51351C0.294922 8.90775 0.476572 9.28585 0.79991 9.56462C1.12325 9.84339 1.56179 10 2.01906 10H8.28865C8.74592 10 9.18446 9.84339 9.5078 9.56462C9.83114 9.28585 10.0128 8.90775 10.0128 8.51351V2.56757C10.0128 2.17333 9.83114 1.79523 9.5078 1.51646C9.18446 1.23769 8.74592 1.08108 8.28865 1.08108ZM2.01906 1.89189H2.80276V2.56757C2.80276 2.67509 2.8523 2.7782 2.94048 2.85423C3.02867 2.93026 3.14827 2.97297 3.27298 2.97297C3.39769 2.97297 3.51729 2.93026 3.60547 2.85423C3.69366 2.7782 3.7432 2.67509 3.7432 2.56757V1.89189H6.56451V2.56757C6.56451 2.67509 6.61406 2.7782 6.70224 2.85423C6.79042 2.93026 6.91002 2.97297 7.03473 2.97297C7.15944 2.97297 7.27905 2.93026 7.36723 2.85423C7.45541 2.7782 7.50495 2.67509 7.50495 2.56757V1.89189H8.28865C8.4965 1.89189 8.69584 1.96308 8.84281 2.08979C8.98978 2.21651 9.07235 2.38837 9.07235 2.56757V4.05405H1.23536V2.56757C1.23536 2.38837 1.31793 2.21651 1.4649 2.08979C1.61187 1.96308 1.81121 1.89189 2.01906 1.89189ZM8.28865 9.18919H2.01906C1.81121 9.18919 1.61187 9.118 1.4649 8.99129C1.31793 8.86457 1.23536 8.69271 1.23536 8.51351V4.86486H9.07235V8.51351C9.07235 8.69271 8.98978 8.86457 8.84281 8.99129C8.69584 9.118 8.4965 9.18919 8.28865 9.18919Z" fill="#646464"/>
</svg>