<svg xmlns="http://www.w3.org/2000/svg" width="15" height="15" viewBox="0 0 15 15" fill="none">
  <path fill-rule="evenodd" clip-rule="evenodd" d="M10.0883 2.625H4.91175C4.60478 2.62516 4.30364 2.7103 4.04276 2.87084C3.78215 3.03121 3.57174 3.26048 3.43513 3.53291L3.4347 3.53376L1.55953 7.25007C1.52038 7.32766 1.5 7.41323 1.5 7.5V10.7376C1.5 11.1719 1.67384 11.5883 1.98327 11.8954C2.29271 12.2025 2.71239 12.375 3.15 12.375H11.85C12.2876 12.375 12.7073 12.2025 13.0167 11.8954C13.3262 11.5883 13.5 11.1719 13.5 10.7376V7.5C13.5 7.41323 13.4796 7.32766 13.4405 7.25007L11.5653 3.53376L11.5649 3.53291C11.4283 3.26048 11.2178 3.03121 10.9572 2.87084C10.6964 2.7103 10.3952 2.62516 10.0883 2.625ZM4.44141 4.03209L3.93844 3.78216L4.44217 4.03056C4.48564 3.94376 4.55264 3.87072 4.63565 3.81963C4.71862 3.76858 4.81429 3.74149 4.91191 3.74141H10.0881C10.1857 3.74149 10.2814 3.76858 10.3644 3.81963C10.4474 3.87071 10.5144 3.94376 10.5578 4.03056L10.5586 4.03209L12.0268 6.94183H9.675C9.48693 6.94183 9.3113 7.03511 9.20697 7.1904L8.28646 8.56063H6.71354L5.79303 7.1904C5.6887 7.03511 5.51307 6.94183 5.325 6.94183H2.97322L4.44141 4.03209ZM2.625 8.05824V10.7376C2.625 10.8758 2.68031 11.0083 2.77877 11.106C2.87723 11.2037 3.01076 11.2586 3.15 11.2586H11.85C11.9892 11.2586 12.1228 11.2037 12.2212 11.106C12.3197 11.0083 12.375 10.8758 12.375 10.7376V8.05824H9.97604L9.05553 9.42847C8.9512 9.58376 8.77557 9.67704 8.5875 9.67704H6.4125C6.22443 9.67704 6.0488 9.58376 5.94447 9.42847L5.02396 8.05824H2.625Z" fill="#646464"/>
</svg>