<svg xmlns="http://www.w3.org/2000/svg" width="12" height="11" viewBox="0 0 12 11" fill="none">
  <path fill-rule="evenodd" clip-rule="evenodd" d="M4.28626 1C3.39157 1 2.76497 1.12227 2.34415 1.26009C2.0019 1.37217 1.5 1.56849 1.5 1.92187V10.5313C1.5 10.7901 1.75633 11 2.07252 11C2.38871 11 2.64504 10.7901 2.64504 10.5313V7.61289C2.88427 7.51757 3.38667 7.37498 4.28626 7.37498C4.99086 7.37498 5.58522 7.56462 6.28737 7.79458C7.06861 8.0505 7.86076 8.28123 8.71374 8.28123C9.60843 8.28123 10.235 8.15896 10.6559 8.02114C10.9998 7.9085 11.5 7.71386 11.5 7.35935V1.92187C11.5 1.73228 11.3605 1.56136 11.1466 1.4888C10.9383 1.41819 10.6995 1.45429 10.5359 1.57988C10.5225 1.58889 10.4318 1.64732 10.2306 1.71321C9.95963 1.80195 9.47936 1.90625 8.71374 1.90625C8.00915 1.90625 7.41478 1.7166 6.71263 1.48665C5.93138 1.23073 5.13924 1 4.28626 1ZM2.64504 2.17541C2.68066 2.16121 2.72199 2.14606 2.7694 2.13053C3.04037 2.04179 3.52064 1.9375 4.28626 1.9375C4.99086 1.9375 5.58522 2.12714 6.28737 2.35709C7.06862 2.61301 7.86076 2.84374 8.71374 2.84374C9.41589 2.84374 9.95293 2.76844 10.355 2.66941V7.10582C10.1157 7.20114 9.61333 7.34373 8.71374 7.34373C8.00915 7.34373 7.41478 7.15409 6.71263 6.92413C5.93139 6.66822 5.13924 6.43748 4.28626 6.43748C3.58411 6.43748 3.04707 6.51279 2.64504 6.61182V2.17541Z" fill="#646464"/>
</svg>