<svg xmlns="http://www.w3.org/2000/svg" width="23" height="23" viewBox="0 0 23 23" fill="none">
  <path fill-rule="evenodd" clip-rule="evenodd" d="M18.9486 2.15625C18.6997 2.15625 18.4533 2.20527 18.2234 2.30051C17.9935 2.39575 17.7845 2.53534 17.6086 2.71132L15.9222 4.39764L18.6024 7.07776L20.2887 5.39144C20.4647 5.21546 20.6043 5.00654 20.6995 4.77661C20.7947 4.54669 20.8438 4.30025 20.8438 4.05138C20.8438 3.8025 20.7947 3.55607 20.6995 3.32614C20.6043 3.09622 20.4647 2.8873 20.2887 2.71132C20.1127 2.53534 19.9038 2.39575 19.6739 2.30051C19.4439 2.20527 19.1975 2.15625 18.9486 2.15625ZM17.0777 8.60245L14.3975 5.92233L3.61976 16.7001L2.61471 20.3853L6.29988 19.3802L17.0777 8.60245ZM17.3982 0.308393C17.8898 0.104792 18.4166 0 18.9486 0C19.4807 0 20.0075 0.104792 20.499 0.308393C20.9906 0.511993 21.4372 0.810416 21.8134 1.18662C22.1896 1.56283 22.488 2.00945 22.6916 2.50098C22.8952 2.99252 23 3.51935 23 4.05138C23 4.58341 22.8952 5.11024 22.6916 5.60177C22.488 6.09331 22.1896 6.53993 21.8134 6.91614L7.62212 21.1074C7.48945 21.2401 7.32446 21.3358 7.14345 21.3852L1.36182 22.962C0.988563 23.0638 0.589374 22.9578 0.3158 22.6842C0.0422261 22.4106 -0.0637841 22.0114 0.038014 21.6382L1.61482 15.8566C1.66419 15.6755 1.75994 15.5105 1.89261 15.3779L16.0839 1.18662C16.4601 0.810416 16.9067 0.511993 17.3982 0.308393Z" fill="#3F434A"/>
</svg>