<svg width="60" height="60" viewBox="0 0 60 60" fill="none" xmlns="http://www.w3.org/2000/svg">
<rect x="0.5" y="0.5" width="59" height="59" rx="4.5" fill="white" stroke="black"/>
<path d="M30 18.5625C28.0116 18.5625 26.4 20.2005 26.4 22.2188C26.4 24.237 28.0116 25.875 30 25.875C31.9872 25.875 33.6 24.237 33.6 22.2188C33.6 20.2005 31.9872 18.5625 30 18.5625ZM39.6 14.9062H36.72C36.324 14.9062 35.8968 14.5942 35.7732 14.2116L35.028 11.9435C34.902 11.562 34.4772 11.25 34.08 11.25H25.92C25.524 11.25 25.0968 11.562 24.9732 11.9423L24.2268 14.2116C24.102 14.5942 23.676 14.9062 23.28 14.9062H20.4C19.08 14.9062 18 16.0031 18 17.3438V28.3125C18 29.6531 19.08 30.75 20.4 30.75H39.6C40.92 30.75 42 29.6531 42 28.3125V17.3438C42 16.0031 40.92 14.9062 39.6 14.9062ZM30 28.3125C26.6856 28.3125 24 25.5849 24 22.2188C24 18.8526 26.6856 16.125 30 16.125C33.3132 16.125 36 18.8526 36 22.2188C36 25.5849 33.3132 28.3125 30 28.3125ZM39 18.8062C38.5356 18.8062 38.16 18.4236 38.16 17.9519C38.16 17.4827 38.5356 17.0988 39 17.0988C39.4644 17.0988 39.84 17.4815 39.84 17.9519C39.84 18.4236 39.4644 18.8062 39 18.8062Z" fill="#3F434A"/>
</svg>
