<svg xmlns="http://www.w3.org/2000/svg" width="24" height="24" viewBox="0 0 24 24" fill="none">
  <path d="M8 18.7496C7.88537 18.7482 7.77256 18.7208 7.67 18.6696C7.54453 18.6081 7.43873 18.5128 7.36453 18.3945C7.29032 18.2761 7.25065 18.1393 7.25 17.9996V5.9996C7.25065 5.85989 7.29032 5.72313 7.36453 5.60475C7.43873 5.48637 7.54453 5.39107 7.67 5.3296C7.79355 5.26714 7.93214 5.24059 8.07002 5.25296C8.2079 5.26534 8.33955 5.31614 8.45 5.3996L16.45 11.3996C16.5431 11.4695 16.6187 11.56 16.6708 11.6642C16.7229 11.7683 16.75 11.8832 16.75 11.9996C16.75 12.116 16.7229 12.2309 16.6708 12.335C16.6187 12.4392 16.5431 12.5297 16.45 12.5996L8.45 18.5996C8.32052 18.6976 8.1624 18.7503 8 18.7496ZM8.75 7.4996V16.4996L14.75 11.9996L8.75 7.4996Z" fill="black"/>
</svg>