<svg width="15" height="15" viewBox="0 0 15 15" fill="none" xmlns="http://www.w3.org/2000/svg">
<g id="Group">
<path id="Path" d="M8.07484 12.6766H5.19864C3.61016 12.6766 2.32245 11.3889 2.32245 9.80038V5.19846C2.32245 3.60998 3.61016 2.32227 5.19864 2.32227L9.80056 2.32227C11.389 2.32227 12.6768 3.60998 12.6768 5.19846V8.07466" stroke="black" stroke-width="0.8625" stroke-linecap="round" stroke-linejoin="round"/>
<path id="Path_2" d="M8.96413 6.03452C9.77266 6.84331 9.77252 8.15438 8.96381 8.963C8.15511 9.77161 6.84404 9.77161 6.03533 8.963C5.22663 8.15438 5.22649 6.84331 6.03501 6.03452C6.42339 5.64601 6.95023 5.42773 7.49957 5.42773C8.04892 5.42773 8.57575 5.64601 8.96413 6.03452" stroke="black" stroke-width="0.8625" stroke-linecap="round" stroke-linejoin="round"/>
<path id="Path_3" d="M10.376 11.8101H13.2522" stroke="black" stroke-width="0.8625" stroke-linecap="round" stroke-linejoin="round"/>
<path id="Path_4" d="M11.814 13.2483V10.3721" stroke="black" stroke-width="0.8625" stroke-linecap="round" stroke-linejoin="round"/>
</g>
</svg>
