<svg xmlns="http://www.w3.org/2000/svg" width="39" height="39" viewBox="0 0 39 39" fill="none">
  <path d="M19.5 10.3594C21.1758 10.3594 22.5469 11.7305 22.5469 13.4062C22.5469 15.082 21.1758 16.4531 19.5 16.4531C17.8242 16.4531 16.4531 15.082 16.4531 13.4062C16.4531 11.7305 17.8242 10.3594 19.5 10.3594ZM19.5 24.0703C23.6133 24.0703 28.3359 26.0355 28.6406 27.1172V28.6406H10.3594V27.1324C10.6641 26.0355 15.3867 24.0703 19.5 24.0703ZM19.5 7.3125C16.1332 7.3125 13.4062 10.0395 13.4062 13.4062C13.4062 16.773 16.1332 19.5 19.5 19.5C22.8668 19.5 25.5938 16.773 25.5938 13.4062C25.5938 10.0395 22.8668 7.3125 19.5 7.3125ZM19.5 21.0234C15.4324 21.0234 7.3125 23.0648 7.3125 27.1172V31.6875H31.6875V27.1172C31.6875 23.0648 23.5676 21.0234 19.5 21.0234Z" fill="#006FFD"/>
</svg>