<svg width="41" height="37" viewBox="0 0 41 37" fill="none" xmlns="http://www.w3.org/2000/svg">
<path d="M34.1663 19.7812C33.8889 19.7826 33.6188 19.6838 33.3976 19.5L20.4997 8.8875L7.60176 19.5C7.32992 19.7238 6.98821 19.8199 6.65182 19.7671C6.31542 19.7144 6.0119 19.5171 5.80801 19.2187C5.60413 18.9204 5.51658 18.5453 5.56464 18.1761C5.6127 17.8069 5.79242 17.4738 6.06426 17.25L19.7309 6C19.9527 5.81744 20.2225 5.71875 20.4997 5.71875C20.7769 5.71875 21.0466 5.81744 21.2684 6L34.9351 17.25C35.1832 17.4711 35.347 17.7861 35.3944 18.133C35.4418 18.4799 35.3694 18.8337 35.1913 19.125C35.0825 19.3181 34.9321 19.4789 34.7534 19.5933C34.5746 19.7077 34.3731 19.7723 34.1663 19.7812Z" fill="black"/>
<path d="M30.7495 34.7813H10.2495C9.91108 34.7764 9.58775 34.6267 9.34842 34.364C9.10909 34.1013 8.97269 33.7465 8.96826 33.375V15.5625C8.96826 15.1895 9.10325 14.8319 9.34353 14.5681C9.58381 14.3044 9.9097 14.1562 10.2495 14.1562C10.5893 14.1562 10.9152 14.3044 11.1555 14.5681C11.3958 14.8319 11.5308 15.1895 11.5308 15.5625V31.9688H29.4683V15.5625C29.4683 15.1895 29.6033 14.8319 29.8435 14.5681C30.0838 14.3044 30.4097 14.1562 30.7495 14.1562C31.0893 14.1562 31.4152 14.3044 31.6555 14.5681C31.8958 14.8319 32.0308 15.1895 32.0308 15.5625V33.375C32.0263 33.7465 31.8899 34.1013 31.6506 34.364C31.4113 34.6267 31.0879 34.7764 30.7495 34.7813Z" fill="black"/>
<path d="M23.9163 34.7812C23.5779 34.7764 23.2546 34.6267 23.0153 34.364C22.7759 34.1013 22.6395 33.7465 22.6351 33.375V21.6562H18.3643V33.375C18.3643 33.748 18.2293 34.1056 17.989 34.3694C17.7487 34.6331 17.4228 34.7812 17.083 34.7812C16.7432 34.7812 16.4173 34.6331 16.177 34.3694C15.9367 34.1056 15.8018 33.748 15.8018 33.375V20.25C15.8062 19.8785 15.9426 19.5237 16.1819 19.261C16.4212 18.9983 16.7446 18.8486 17.083 18.8438H23.9163C24.2548 18.8486 24.5781 18.9983 24.8174 19.261C25.0568 19.5237 25.1932 19.8785 25.1976 20.25V33.375C25.1932 33.7465 25.0568 34.1013 24.8174 34.364C24.5781 34.6267 24.2548 34.7764 23.9163 34.7812Z" fill="black"/>
</svg>
