<svg width="41" height="36" viewBox="0 0 41 36" fill="none" xmlns="http://www.w3.org/2000/svg">
<path fill-rule="evenodd" clip-rule="evenodd" d="M31.3769 14.0333C31.3769 16.1682 29.372 17.9417 26.8384 17.9417C24.3047 17.9417 22.2999 16.1682 22.2999 14.0333C22.2999 11.8984 24.3047 10.125 26.8384 10.125C29.372 10.125 31.3769 11.8984 31.3769 14.0333ZM34.3769 14.0333C34.3769 17.6416 31.0018 20.5667 26.8384 20.5667C22.675 20.5667 19.2999 17.6416 19.2999 14.0333C19.2999 10.4251 22.675 7.5 26.8384 7.5C31.0018 7.5 34.3769 10.4251 34.3769 14.0333ZM23.7652 25.0583H29.9115C34.1762 25.0583 37.8384 28.2393 37.8384 32.3889C37.8384 32.558 37.7656 32.6875 37.6745 32.7705C37.5854 32.8517 37.4983 32.875 37.4237 32.875H16.253C16.1784 32.875 16.0913 32.8517 16.0023 32.7705C15.9112 32.6875 15.8384 32.558 15.8384 32.3889C15.8384 28.2393 19.5005 25.0583 23.7652 25.0583ZM12.8384 32.3889C12.8384 26.8906 17.7305 22.4333 23.7652 22.4333H29.9115C35.9463 22.4333 40.8384 26.8906 40.8384 32.3889C40.8384 34.1071 39.3096 35.5 37.4237 35.5H16.253C14.3672 35.5 12.8384 34.1071 12.8384 32.3889Z" fill="black"/>
</svg>
