<svg width="44" height="38" viewBox="0 0 44 38" fill="none" xmlns="http://www.w3.org/2000/svg">
<path d="M18.2552 9.1875H9.08854C8.11608 9.1875 7.18345 9.6221 6.49582 10.3957C5.80818 11.1693 5.42188 12.2185 5.42188 13.3125V31.875C5.42188 32.969 5.80818 34.0182 6.49582 34.7918C7.18345 35.5654 8.11608 36 9.08854 36H34.7552C35.7277 36 36.6603 35.5654 37.3479 34.7918C38.0356 34.0182 38.4219 32.969 38.4219 31.875V13.3125C38.4219 12.2185 38.0356 11.1693 37.3479 10.3957C36.6603 9.6221 35.7277 9.1875 34.7552 9.1875H25.5885M18.2552 9.1875V7.125C18.2552 6.03098 18.6415 4.98177 19.3292 4.20818C20.0168 3.4346 20.9494 3 21.9219 3C22.8943 3 23.827 3.4346 24.5146 4.20818C25.2022 4.98177 25.5885 6.03098 25.5885 7.125V9.1875M18.2552 9.1875C18.2552 10.2815 18.6415 11.3307 19.3292 12.1043C20.0168 12.8779 20.9494 13.3125 21.9219 13.3125C22.8943 13.3125 23.827 12.8779 24.5146 12.1043C25.2022 11.3307 25.5885 10.2815 25.5885 9.1875M16.4219 25.6875C17.3943 25.6875 18.327 25.2529 19.0146 24.4793C19.7022 23.7057 20.0885 22.6565 20.0885 21.5625C20.0885 20.4685 19.7022 19.4193 19.0146 18.6457C18.327 17.8721 17.3943 17.4375 16.4219 17.4375C15.4494 17.4375 14.5168 17.8721 13.8292 18.6457C13.1415 19.4193 12.7552 20.4685 12.7552 21.5625C12.7552 22.6565 13.1415 23.7057 13.8292 24.4793C14.5168 25.2529 15.4494 25.6875 16.4219 25.6875ZM16.4219 25.6875C18.8162 25.6875 20.853 27.4097 21.6102 29.8125M16.4219 25.6875C15.2841 25.6871 14.1742 26.0836 13.245 26.8224C12.3158 27.5611 11.6131 28.6058 11.2335 29.8125M27.4219 19.5H32.9219M27.4219 27.75H31.0885" stroke="black" stroke-width="2" stroke-linecap="round" stroke-linejoin="round"/>
</svg>
