<svg width="41" height="40" viewBox="0 0 41 40" fill="none" xmlns="http://www.w3.org/2000/svg">
<path d="M15.3748 8.54167H11.9582C11.052 8.54167 10.183 8.90164 9.54222 9.54239C8.90147 10.1831 8.5415 11.0522 8.5415 11.9583V32.4583C8.5415 33.3645 8.90147 34.2335 9.54222 34.8743C10.183 35.515 11.052 35.875 11.9582 35.875H29.0415C29.9477 35.875 30.8167 35.515 31.4575 34.8743C32.0982 34.2335 32.4582 33.3645 32.4582 32.4583V11.9583C32.4582 11.0522 32.0982 10.1831 31.4575 9.54239C30.8167 8.90164 29.9477 8.54167 29.0415 8.54167H25.6248M15.3748 8.54167C15.3748 9.44782 15.7348 10.3169 16.3756 10.9576C17.0163 11.5984 17.8853 11.9583 18.7915 11.9583H22.2082C23.1143 11.9583 23.9834 11.5984 24.6241 10.9576C25.2649 10.3169 25.6248 9.44782 25.6248 8.54167M15.3748 8.54167C15.3748 7.63551 15.7348 6.76647 16.3756 6.12572C17.0163 5.48497 17.8853 5.125 18.7915 5.125H22.2082C23.1143 5.125 23.9834 5.48497 24.6241 6.12572C25.2649 6.76647 25.6248 7.63551 25.6248 8.54167M15.3748 23.9167L18.7915 27.3333L25.6248 20.5" stroke="black" stroke-width="2" stroke-linecap="round" stroke-linejoin="round"/>
</svg>
