<svg width="40" height="37" viewBox="0 0 40 37" fill="none" xmlns="http://www.w3.org/2000/svg">
<path fill-rule="evenodd" clip-rule="evenodd" d="M23.3704 6.68871C24.4788 6.23407 25.667 6 26.867 6C28.0671 6 29.2553 6.23407 30.3637 6.68871C31.4718 7.14326 32.4784 7.80933 33.3259 8.64865C34.174 9.48779 34.8465 10.4839 35.3052 11.5798C35.764 12.6758 36 13.8504 36 15.0364C36 16.2225 35.764 17.397 35.3052 18.493C34.8465 19.5889 34.174 20.585 33.3259 21.4242L21.062 33.5648C20.7805 33.8434 20.3983 34 19.9996 34C19.601 34 19.2187 33.8434 18.9373 33.5648L6.67307 21.4239C4.96098 19.729 4 17.4313 4 15.0364C4 12.6415 4.96098 10.3438 6.67307 8.6489C8.38533 6.95386 10.7087 6.00073 13.1322 6.00073C15.5558 6.00073 17.8791 6.95386 19.5914 8.6489L19.9996 9.05303L20.4076 8.64914C20.4075 8.64922 20.4077 8.64906 20.4076 8.64914C21.2552 7.80971 22.2621 7.14331 23.3704 6.68871ZM31.2012 10.7386C30.6317 10.1745 29.9558 9.72733 29.2121 9.4223C28.4685 9.11728 27.6717 8.96035 26.867 8.96035C26.0624 8.96035 25.2655 9.11729 24.5219 9.4223C23.7783 9.72733 23.1023 10.1745 22.5328 10.7386L21.062 12.1946C20.7805 12.4732 20.3983 12.6298 19.9996 12.6298C19.601 12.6298 19.2187 12.4732 18.9373 12.1946L17.4667 10.7388C16.3163 9.60001 14.757 8.96109 13.1322 8.96109C11.5074 8.96109 9.94817 9.60001 8.79778 10.7388C7.64723 11.8778 7 13.4236 7 15.0364C7 16.6492 7.64723 18.195 8.79778 19.334L19.9996 30.4232L31.2015 19.334C31.7713 18.7702 32.2238 18.1003 32.5324 17.3628C32.8411 16.6254 33 15.8349 33 15.0364C33 14.2379 32.8411 13.4474 32.5324 12.71C32.2238 11.9725 31.771 11.3024 31.2012 10.7386Z" fill="#D9D9D9"/>
</svg>
