<svg width="31" height="30" viewBox="0 0 31 30" fill="none" xmlns="http://www.w3.org/2000/svg">
<path d="M29.1663 14.7812C28.8889 14.7826 28.6188 14.6838 28.3976 14.5L15.4997 3.8875L2.60176 14.5C2.32992 14.7238 1.98821 14.8199 1.65182 14.7671C1.31542 14.7144 1.0119 14.5171 0.808013 14.2187C0.604128 13.9204 0.516584 13.5453 0.56464 13.1761C0.612696 12.8069 0.792416 12.4738 1.06426 12.25L14.7309 1C14.9527 0.817438 15.2225 0.71875 15.4997 0.71875C15.7769 0.71875 16.0466 0.817438 16.2684 1L29.9351 12.25C30.1832 12.4711 30.347 12.7861 30.3944 13.133C30.4418 13.4799 30.3694 13.8337 30.1913 14.125C30.0825 14.3181 29.9321 14.4789 29.7534 14.5933C29.5746 14.7077 29.3731 14.7723 29.1663 14.7812Z" fill="black"/>
<path d="M25.7495 29.7813H5.24951C4.91108 29.7764 4.58775 29.6267 4.34842 29.364C4.10909 29.1013 3.97269 28.7465 3.96826 28.375V10.5625C3.96826 10.1895 4.10325 9.83185 4.34353 9.56813C4.58381 9.30441 4.9097 9.15625 5.24951 9.15625C5.58932 9.15625 5.91521 9.30441 6.15549 9.56813C6.39577 9.83185 6.53076 10.1895 6.53076 10.5625V26.9688H24.4683V10.5625C24.4683 10.1895 24.6033 9.83185 24.8435 9.56813C25.0838 9.30441 25.4097 9.15625 25.7495 9.15625C26.0893 9.15625 26.4152 9.30441 26.6555 9.56813C26.8958 9.83185 27.0308 10.1895 27.0308 10.5625V28.375C27.0263 28.7465 26.8899 29.1013 26.6506 29.364C26.4113 29.6267 26.0879 29.7764 25.7495 29.7813Z" fill="black"/>
<path d="M18.9163 29.7812C18.5779 29.7764 18.2546 29.6267 18.0153 29.364C17.7759 29.1013 17.6395 28.7465 17.6351 28.375V16.6562H13.3643V28.375C13.3643 28.748 13.2293 29.1056 12.989 29.3694C12.7487 29.6331 12.4228 29.7812 12.083 29.7812C11.7432 29.7812 11.4173 29.6331 11.177 29.3694C10.9367 29.1056 10.8018 28.748 10.8018 28.375V15.25C10.8062 14.8785 10.9426 14.5237 11.1819 14.261C11.4212 13.9983 11.7446 13.8486 12.083 13.8438H18.9163C19.2548 13.8486 19.5781 13.9983 19.8174 14.261C20.0568 14.5237 20.1932 14.8785 20.1976 15.25V28.375C20.1932 28.7465 20.0568 29.1013 19.8174 29.364C19.5781 29.6267 19.2548 29.7764 18.9163 29.7812Z" fill="black"/>
</svg>
