<svg width="29" height="29" viewBox="0 0 29 29" fill="none" xmlns="http://www.w3.org/2000/svg">
<path fill-rule="evenodd" clip-rule="evenodd" d="M19.3769 7.03333C19.3769 9.16822 17.372 10.9417 14.8384 10.9417C12.3047 10.9417 10.2999 9.16822 10.2999 7.03333C10.2999 4.89845 12.3047 3.125 14.8384 3.125C17.372 3.125 19.3769 4.89845 19.3769 7.03333ZM22.3769 7.03333C22.3769 10.6416 19.0018 13.5667 14.8384 13.5667C10.675 13.5667 7.29993 10.6416 7.29993 7.03333C7.29993 3.42507 10.675 0.5 14.8384 0.5C19.0018 0.5 22.3769 3.42507 22.3769 7.03333ZM11.7652 18.0583H17.9115C22.1762 18.0583 25.8384 21.2393 25.8384 25.3889C25.8384 25.558 25.7656 25.6875 25.6745 25.7705C25.5854 25.8517 25.4983 25.875 25.4237 25.875H4.25301C4.17843 25.875 4.09131 25.8517 4.00227 25.7705C3.91118 25.6875 3.83838 25.558 3.83838 25.3889C3.83838 21.2393 7.50053 18.0583 11.7652 18.0583ZM0.838379 25.3889C0.838379 19.8906 5.73049 15.4333 11.7652 15.4333H17.9115C23.9463 15.4333 28.8384 19.8906 28.8384 25.3889C28.8384 27.1071 27.3096 28.5 25.4237 28.5H4.25301C2.36716 28.5 0.838379 27.1071 0.838379 25.3889Z" fill="#D9D9D9"/>
</svg>
